<?xml version="1.0" encoding="UTF-8"?>
<svg version="1.1" xmlns="http://www.w3.org/2000/svg" width="432" height="432">
<path d="M0 0 C3.10688545 1.38290904 5.23086153 2.97849023 7.63407612 5.3740139 C8.34281952 6.07569171 9.05156293 6.77736953 9.7817834 7.5003103 C10.93845044 8.66059997 10.93845044 8.66059997 12.1184845 9.84432983 C12.94340179 10.66401044 13.76831908 11.48369106 14.61823386 12.32821047 C16.90649799 14.60405828 19.19021976 16.88435309 21.47206247 19.16663599 C23.9340378 21.62696329 26.40170802 24.08156764 28.86859131 26.53697205 C34.25993063 31.90546588 39.6437993 37.28141065 45.02625489 42.65880919 C48.38530949 46.01460777 51.74599406 49.36877064 55.10703087 52.72258377 C64.40857917 62.00457069 73.70854824 71.28813152 83.00177479 80.57845116 C83.59637573 81.17286453 84.19097667 81.7672779 84.80359582 82.3797038 C86.00901838 83.58476011 87.21443967 84.78981769 88.41985969 85.99487655 C89.31744052 86.89218316 89.31744052 86.89218316 90.2331543 87.80761719 C90.83226817 88.40655051 91.43138204 89.00548384 92.04865088 89.62256666 C101.76843376 99.33880378 111.49991325 109.04323379 121.23658184 118.74254684 C131.22749438 128.69543354 141.20907645 138.65759578 151.18114585 148.6293627 C156.78262164 154.23025282 162.38802053 159.82708784 168.00361061 165.4138298 C172.78242038 170.16820273 177.55262758 174.93099804 182.3116822 179.70514892 C184.74171291 182.14237889 187.17567356 184.57532255 189.62058067 186.9976368 C192.26417609 189.62099855 194.89208865 192.25910483 197.51643372 194.90170288 C198.29869869 195.67076788 199.08096366 196.43983289 199.88693362 197.23220289 C200.58263829 197.93909619 201.27834296 198.6459895 201.99512959 199.37430382 C202.60393131 199.98229108 203.21273303 200.59027835 203.83998328 201.21668947 C205 203 205 203 204.89266419 204.99867475 C203.82563626 207.39091805 202.57742651 208.79516314 200.72224331 210.64690018 C200.01660635 211.35851028 199.3109694 212.07012038 198.58394951 212.80329442 C197.80089079 213.57761461 197.01783208 214.3519348 196.21104431 215.14971924 C195.38531231 215.97801451 194.55958031 216.80630979 193.70882612 217.65970492 C191.41335598 219.95926803 189.11126652 222.25195912 186.80625045 224.54194641 C184.32297907 227.01228031 181.84836496 229.49125938 179.37269592 231.96920776 C175.08158688 236.26189099 170.78501273 240.54904077 166.48469353 244.83249664 C160.26714252 251.02568187 154.05787744 257.22711994 147.85061307 263.43061313 C137.77988304 273.49477487 127.70246967 283.55221684 117.62084961 293.60546875 C107.82664894 303.37213862 98.03559942 313.14194975 88.2487793 322.91601562 C87.64566891 323.51833784 87.04255853 324.12066005 86.42117207 324.74123445 C83.39560876 327.76288269 80.37010739 330.78459294 77.3446368 333.80633402 C52.23935286 358.88051031 27.12322086 383.94379623 2 409 C-2.10516072 407.12476918 -4.84639896 404.34344977 -7.9375 401.125 C-11.46947888 397.47306712 -15.011079 394.16269288 -19 391 C-19.99275753 389.92667838 -20.95215979 388.82149857 -21.875 387.6875 C-25.59121822 383.3382092 -29.58593201 379.29637984 -33.625 375.25 C-34.59348877 374.2748645 -34.59348877 374.2748645 -35.58154297 373.2800293 C-38.91503918 369.95641074 -42.30340467 366.92213257 -46 364 C-46.99275753 362.92667838 -47.95215979 361.82149857 -48.875 360.6875 C-52.59121822 356.3382092 -56.58593201 352.29637984 -60.625 348.25 C-61.59348877 347.2748645 -61.59348877 347.2748645 -62.58154297 346.2800293 C-65.91510745 342.95634268 -69.30405298 339.92298095 -73 337 C-74.01365793 335.90597533 -74.99406057 334.78012528 -75.9375 333.625 C-79.46442337 329.499898 -83.23084896 325.65166703 -87.0625 321.8125 C-87.65216553 321.21840332 -88.24183105 320.62430664 -88.84936523 320.01220703 C-91.55876847 317.31150597 -94.28369907 314.71171819 -97.24609375 312.2890625 C-99.45779668 310.45068247 -101.20193989 308.77431827 -103 306.5625 C-106.5400216 302.40993534 -110.335104 298.54733497 -114.1875 294.6875 C-114.79400391 294.07656494 -115.40050781 293.46562988 -116.02539062 292.83618164 C-118.41551403 290.45365117 -120.70766848 288.21607112 -123.42578125 286.20703125 C-123.94527344 285.80871094 -124.46476562 285.41039062 -125 285 C-125 284.34 -125 283.68 -125 283 C-125.66 283 -126.32 283 -127 283 C-128.26953125 281.70703125 -128.26953125 281.70703125 -129.8125 279.8125 C-133.24466996 275.77337788 -136.88118252 271.9969844 -140.625 268.25 C-141.17518799 267.69546143 -141.72537598 267.14092285 -142.29223633 266.56958008 C-145.38547389 263.48658656 -148.58007988 260.72305284 -152 258 C-152.99275753 256.92667838 -153.95215979 255.82149857 -154.875 254.6875 C-158.59121822 250.3382092 -162.58593201 246.29637984 -166.625 242.25 C-167.59348877 241.2748645 -167.59348877 241.2748645 -168.58154297 240.2800293 C-171.91503918 236.95641074 -175.30340467 233.92213257 -179 231 C-179.99275753 229.92667838 -180.95215979 228.82149857 -181.875 227.6875 C-185.64617802 223.26959435 -189.71135869 219.170918 -193.8125 215.0625 C-194.4832959 214.38727295 -195.1540918 213.7120459 -195.84521484 213.01635742 C-196.48023926 212.38318604 -197.11526367 211.75001465 -197.76953125 211.09765625 C-198.34292236 210.52539307 -198.91631348 209.95312988 -199.50708008 209.36352539 C-200.97377378 207.89937424 -200.97377378 207.89937424 -203 207 C-203.37473124 202.45733972 -203.37473124 202.45733972 -201.77734375 200.5078125 C-200.86662109 199.82332031 -200.86662109 199.82332031 -199.9375 199.125 C-195.42881736 195.46624856 -191.34610445 191.48151198 -187.25 187.375 C-186.60023193 186.72934082 -185.95046387 186.08368164 -185.28100586 185.41845703 C-181.95628888 182.08558176 -178.92231879 178.6968309 -176 175 C-174.92667838 174.00724247 -173.82149857 173.04784021 -172.6875 172.125 C-168.3382092 168.40878178 -164.29637984 164.41406799 -160.25 160.375 C-159.59990967 159.72934082 -158.94981934 159.08368164 -158.2800293 158.41845703 C-154.95627496 155.08482462 -151.92382574 151.69530082 -149 148 C-147.88526692 146.96544494 -146.7387426 145.96404739 -145.5625 145 C-141.547441 141.57047044 -137.79789511 137.91522279 -134.0625 134.1875 C-133.48250244 133.61193359 -132.90250488 133.03636719 -132.30493164 132.44335938 C-129.28313566 129.50225529 -129.28313566 129.50225529 -127 126 C-126.34 126 -125.68 126 -125 126 C-124.73703125 125.39929688 -124.4740625 124.79859375 -124.203125 124.1796875 C-122.92605624 121.86603696 -121.79531457 120.77014433 -119.75 119.125 C-115.56822311 115.58775386 -111.68426807 111.80622901 -107.8125 107.9375 C-106.92159668 107.05312256 -106.92159668 107.05312256 -106.01269531 106.15087891 C-103.31167124 103.44153235 -100.71183388 100.7164424 -98.2890625 97.75390625 C-96.45068247 95.54220332 -94.77431827 93.79806011 -92.5625 92 C-88.43281523 88.47831853 -84.58913927 84.70668656 -80.75 80.875 C-80.14744385 80.276875 -79.5448877 79.67875 -78.92407227 79.0625 C-75.72085607 75.84901851 -72.82295307 72.55803275 -70 69 C-68.92667838 68.00724247 -67.82149857 67.04784021 -66.6875 66.125 C-62.3382092 62.40878178 -58.29637984 58.41406799 -54.25 54.375 C-53.2748645 53.40651123 -53.2748645 53.40651123 -52.2800293 52.41845703 C-48.95641074 49.08496082 -45.92213257 45.69659533 -43 42 C-41.92667838 41.00724247 -40.82149857 40.04784021 -39.6875 39.125 C-35.3382092 35.40878178 -31.29637984 31.41406799 -27.25 27.375 C-26.59990967 26.72934082 -25.94981934 26.08368164 -25.2800293 25.41845703 C-21.95594136 22.08449004 -18.9279969 18.69210135 -16 15 C-14.78165483 13.86100084 -13.53170276 12.75470292 -12.25 11.6875 C-7.93872353 8.00832798 -3.95818345 4.0529272 0 0 Z " fill="#FFFB00" transform="translate(213,10)"/>
<path d="M0 0 C2.5 1.5 2.5 1.5 4 4 C4.59904236 7.32196218 4.87087527 8.87544076 4 12 C2.5257806 13.99019619 0.93234328 15.50446962 -0.93795776 17.12556458 C-2.87718993 18.88836332 -4.53846129 20.69777404 -6.22705078 22.69799805 C-10.05187542 27.12368518 -14.13758536 31.23053752 -18.3046875 35.33203125 C-19.87252443 36.88724016 -21.44022902 38.44258249 -23.0078125 39.99804688 C-25.45515913 42.42044578 -27.90409251 44.84120022 -30.35546875 47.25952148 C-32.7387128 49.61269082 -35.11580397 51.97193685 -37.4921875 54.33203125 C-38.23064911 55.05703323 -38.96911072 55.78203522 -39.72994995 56.52900696 C-40.4080069 57.20368515 -41.08606384 57.87836334 -41.78466797 58.57348633 C-42.38310516 59.16446609 -42.98154236 59.75544586 -43.59811401 60.36433411 C-46.35574347 63.58182861 -46.54104927 67.42219472 -46.44628906 71.49731445 C-45.91699578 74.4654684 -45.05354924 75.55978365 -43.015625 77.75 C-42.37753906 78.44053467 -41.73945313 79.13106934 -41.08203125 79.8425293 C-37.5120357 83.54187858 -33.90484917 87.19688066 -30.25 90.8125 C-29.43305664 91.62565674 -28.61611328 92.43881348 -27.77441406 93.27661133 C-25.18537329 95.85353297 -22.59311263 98.42717625 -20 101 C-16.58037281 104.39287153 -13.16417851 107.78914657 -9.75 111.1875 C-8.59032715 112.33472534 -8.59032715 112.33472534 -7.40722656 113.50512695 C-3.26072676 117.63305898 0.69749682 121.85337205 4.51467896 126.28759766 C6.18759533 128.21627558 7.93230539 130.04723581 9.74609375 131.84375 C10.35517578 132.44960938 10.96425781 133.05546875 11.59179688 133.6796875 C12.20087891 134.28039062 12.80996094 134.88109375 13.4375 135.5 C14.07365234 136.13164062 14.70980469 136.76328125 15.36523438 137.4140625 C16.90782806 138.94505774 18.45357314 140.47287667 20 142 C18.4608199 145.66752005 16.24514548 147.98580573 13.4296875 150.765625 C12.53378906 151.65507812 11.63789063 152.54453125 10.71484375 153.4609375 C9.77769531 154.38132812 8.84054688 155.30171875 7.875 156.25 C6.92011363 157.19484856 5.96568141 158.14015633 5.01171875 159.0859375 C2.67890913 161.39518338 0.34155914 163.69963203 -2 166 C-5.0957554 164.62175583 -7.20686289 163.04096882 -9.59405518 160.64645386 C-10.28951447 159.9537439 -10.98497375 159.26103394 -11.70150757 158.54733276 C-12.45388702 157.78776276 -13.20626648 157.02819275 -13.98144531 156.24560547 C-14.7818222 155.44552063 -15.5821991 154.64543579 -16.40682983 153.82110596 C-19.05202947 151.17451263 -21.69007385 148.52090472 -24.328125 145.8671875 C-26.16043219 144.03115034 -27.99318134 142.19555414 -29.82635498 140.36038208 C-34.15775434 136.02212581 -38.48467104 131.67944496 -42.80944896 127.33458912 C-47.73415149 122.38752156 -52.6645433 117.44614083 -57.59541941 112.5052278 C-67.7366189 102.34313072 -77.87065984 92.17391755 -88 82 C-86.26798575 78.29557746 -84.17198443 75.95482865 -81.23828125 73.078125 C-80.76939987 72.61444519 -80.30051849 72.15076538 -79.81742859 71.67303467 C-78.32048402 70.19382975 -76.81704251 68.72147299 -75.3125 67.25 C-73.82662216 65.79202939 -72.34234309 64.33252184 -70.86112976 62.86981201 C-69.50491833 61.53123319 -68.14384157 60.19758899 -66.7824707 58.86425781 C-64.70755712 56.72835484 -62.7612417 54.58790149 -60.82592773 52.33251953 C-56.25033244 47.05550072 -51.30153281 42.15703645 -46.359375 37.2265625 C-45.34508954 36.21160183 -44.33095243 35.19649289 -43.31695557 34.1812439 C-41.20738766 32.07021262 -39.09604922 29.96097323 -36.98339844 27.85302734 C-34.27768661 25.15304882 -31.57653918 22.44855516 -28.87667465 19.74273109 C-26.79041961 17.65286476 -24.70179166 15.56538307 -22.61243439 13.47861862 C-21.61495867 12.4818087 -20.61822171 11.48425894 -19.62224579 10.48595047 C-18.23463348 9.09579835 -16.84347063 7.70919301 -15.45214844 6.32275391 C-14.66273865 5.53413971 -13.87332886 4.74552551 -13.05999756 3.93301392 C-8.9359157 0.06315126 -5.54080251 -0.86958269 0 0 Z " fill="#FF0200" transform="translate(217,231)"/>
<path d="M0 0 C7.69448264 3.68269536 13.46102232 11.70755844 19 18 C17.62175583 21.0957554 16.04096882 23.20686289 13.64645386 25.59405518 C12.9537439 26.28951447 12.26103394 26.98497375 11.54733276 27.70150757 C10.78776276 28.45388702 10.02819275 29.20626648 9.24560547 29.98144531 C8.44552063 30.7818222 7.64543579 31.5821991 6.82110596 32.40682983 C4.17451263 35.05202947 1.52090472 37.69007385 -1.1328125 40.328125 C-2.96884966 42.16043219 -4.80444586 43.99318134 -6.63961792 45.82635498 C-10.97787419 50.15775434 -15.32055504 54.48467104 -19.66541088 58.80944896 C-24.61247844 63.73415149 -29.55385917 68.6645433 -34.4947722 73.59541941 C-44.65686928 83.7366189 -54.82608245 93.87065984 -65 104 C-69.10570389 102.1149941 -71.88604614 99.35166249 -75.0078125 96.15234375 C-75.57450653 95.58044815 -76.14120056 95.00855255 -76.72506714 94.41932678 C-78.52987272 92.59674775 -80.32783318 90.76760926 -82.125 88.9375 C-83.93017315 87.10471379 -85.73678389 85.27340471 -87.5463562 83.44496155 C-88.67097536 82.30807969 -89.79291063 81.16853542 -90.91189575 80.02610779 C-93.68030188 77.15256386 -93.68030188 77.15256386 -97 75 C-97 74.34 -97 73.68 -97 73 C-97.85271484 72.63648438 -97.85271484 72.63648438 -98.72265625 72.265625 C-104.33879412 69.14447805 -108.85275226 63.5138992 -112.875 58.5625 C-114.92194725 55.84519628 -114.92194725 55.84519628 -118 54 C-118 53.34 -118 52.68 -118 52 C-118.55034912 51.77417236 -119.10069824 51.54834473 -119.66772461 51.31567383 C-122.71067887 49.59909469 -124.84281438 47.41676852 -127.31640625 44.94921875 C-127.81414047 44.45339798 -128.31187469 43.95757721 -128.82469177 43.44673157 C-129.8734624 42.39931837 -130.91972582 41.34938945 -131.96362305 40.29711914 C-133.55367509 38.69638421 -135.15407645 37.1065645 -136.75585938 35.51757812 C-137.77668331 34.49543208 -138.79688639 33.47266552 -139.81640625 32.44921875 C-141.20001343 31.06222778 -141.20001343 31.06222778 -142.61157227 29.6472168 C-148.06415366 23.60384155 -148.06415366 23.60384155 -147.875 18.875 C-146.58527828 14.63734291 -146.58527828 14.63734291 -144 13 C-139.95139048 11.83213187 -137.7974051 11.64852633 -133.91259766 13.36083984 C-128.96526675 16.36201235 -125.09164441 20.57517391 -121.07889938 24.69560623 C-119.62239093 26.19080089 -118.15636841 27.67607176 -116.68765259 29.15927124 C-113.5748672 32.30613193 -110.47410058 35.46466898 -107.375 38.625 C-103.77419514 42.29677176 -100.16854055 45.96350089 -96.55000687 49.6178093 C-95.10966474 51.07751626 -93.67869443 52.54599298 -92.24789429 54.01504517 C-91.36993195 54.90291718 -90.4919696 55.79078918 -89.58740234 56.70556641 C-88.43659683 57.87993759 -88.43659683 57.87993759 -87.26254272 59.07803345 C-83.84148401 61.98412682 -81.15856855 62.97814022 -76.6875 63.0625 C-68.41400293 60.67861101 -62.11382032 52.24062148 -56.1875 46.25 C-55.37434326 45.43305664 -54.56118652 44.61611328 -53.72338867 43.77441406 C-51.14646703 41.18537329 -48.57282375 38.59311263 -46 36 C-42.60712847 32.58037281 -39.21085343 29.16417851 -35.8125 25.75 C-35.04768311 24.97688477 -34.28286621 24.20376953 -33.49487305 23.40722656 C-29.36488861 19.25866512 -25.15138251 15.28425841 -20.70187378 11.47921753 C-18.39270501 9.47215745 -16.25702301 7.31772118 -14.125 5.125 C-9.67925574 0.55533255 -6.54034509 -1.15007844 0 0 Z " fill="#FF0200" transform="translate(379,194)"/>
<path d="M0 0 C5.47488164 3.05719886 9.53654781 7.33769646 13.875 11.8125 C15.22396158 13.19655017 16.57551885 14.57807531 17.9296875 15.95703125 C18.51991699 16.56522705 19.11014648 17.17342285 19.71826172 17.80004883 C21.67365678 19.6853543 23.66988509 21.45679964 25.7265625 23.22875977 C30.16694794 27.08871629 34.31021387 31.20053609 38.4453125 35.3828125 C39.2188205 36.16010712 39.99232849 36.93740173 40.78927612 37.73825073 C43.23698098 40.19806667 45.68139676 42.66110987 48.125 45.125 C51.35384181 48.3805317 54.58604462 51.63267236 57.8203125 54.8828125 C58.55170441 55.62250275 59.28309631 56.36219299 60.03665161 57.1242981 C63.87491709 60.98082009 67.78020082 64.56713741 72 68 C75.15554112 71.43338751 77.56778891 74.77540192 79.125 79.1875 C79 82 79 82 77.5 84.8125 C74.12907519 87.76205921 72.49080726 88.22085937 68 88 C61.14485949 84.50590934 55.74924808 79.15594369 50.421875 73.71484375 C49.64741028 72.93613419 48.87294556 72.15742462 48.07501221 71.3551178 C45.62613404 68.8896013 43.18793664 66.41383124 40.75 63.9375 C39.09966085 62.27209 37.44862506 60.60737005 35.796875 58.94335938 C32.77008425 55.89218247 29.74729212 52.83716879 26.72949219 49.77709961 C25.4865039 48.51789287 24.2433583 47.25884139 23 46 C22.25103455 45.24120041 22.25103455 45.24120041 21.48693848 44.46707153 C16.57924716 39.23246674 16.57924716 39.23246674 10.05018616 36.74996948 C2.29705198 37.09959792 -1.4354555 41.41314601 -6.56640625 46.8203125 C-7.44473618 47.71233368 -8.3230661 48.60435486 -9.22801208 49.52340698 C-11.55290379 51.89088271 -13.85921013 54.27376298 -16.15771484 56.66668701 C-19.38684006 60.01885458 -22.65069793 63.33727972 -25.90769958 66.662323 C-27.6351722 68.4299385 -29.35738239 70.20271781 -31.07337952 71.98147583 C-35.31318985 76.36006145 -39.62598736 80.52711484 -44.25572205 84.49145508 C-46.50912892 86.44032193 -48.6202987 88.50721266 -50.71875 90.62109375 C-51.50507812 91.41064453 -52.29140625 92.20019531 -53.1015625 93.01367188 C-53.89304688 93.81353516 -54.68453125 94.61339844 -55.5 95.4375 C-56.73363281 96.67790039 -56.73363281 96.67790039 -57.9921875 97.94335938 C-59.99712113 99.95994959 -61.99966253 101.97885236 -64 104 C-67.66752005 102.4608199 -69.98580573 100.24514548 -72.765625 97.4296875 C-73.65507813 96.53378906 -74.54453125 95.63789063 -75.4609375 94.71484375 C-76.38132812 93.77769531 -77.30171875 92.84054688 -78.25 91.875 C-79.19484856 90.92011363 -80.14015633 89.96568141 -81.0859375 89.01171875 C-83.39518338 86.67890913 -85.69963203 84.34155914 -88 82 C-86.65510813 79.00637629 -85.16693469 76.9174559 -82.84973145 74.60249329 C-81.87810814 73.62457825 -81.87810814 73.62457825 -80.88685608 72.62690735 C-80.17718185 71.92285263 -79.46750763 71.21879791 -78.73632812 70.4934082 C-77.98822372 69.74340546 -77.24011932 68.99340271 -76.46934509 68.22067261 C-73.99484008 65.74246227 -71.51320696 63.2715266 -69.03125 60.80078125 C-67.31217625 59.0828994 -65.59347177 57.36464796 -63.87512207 55.64604187 C-60.27351214 52.04599632 -56.66856562 48.44933711 -53.06103516 44.85522461 C-48.42862082 40.23981912 -43.80283574 35.61783896 -39.1792984 30.99354267 C-35.63152479 27.44604047 -32.08115479 23.90114668 -28.52989197 20.35713768 C-26.82278773 18.6532232 -25.11629517 16.94869567 -23.41041565 15.24355507 C-21.0306757 12.86597433 -18.64767743 10.49171077 -16.26367188 8.1184082 C-15.55399765 7.40828079 -14.84432343 6.69815338 -14.11314392 5.96650696 C-13.14152061 5.00128113 -13.14152061 5.00128113 -12.15026855 4.01655579 C-11.5868853 3.45484838 -11.02350204 2.89314096 -10.44304657 2.31441212 C-7.20313041 -0.63669504 -4.24324917 -0.3536041 0 0 Z " fill="#FF0200" transform="translate(118,132)"/>
<path d="M0 0 C6.62433124 1.82131627 11.82384341 8.10896349 16.24972534 13.08203125 C24.91213002 22.5739574 34.0094496 31.62701609 43.10519409 40.70068359 C45.52885113 43.11858738 47.94790979 45.54103474 50.36572075 47.96478271 C52.71524039 50.31881003 55.06858904 52.66899404 57.42160034 55.01953125 C58.27696381 55.87691895 59.13232727 56.73430664 60.01361084 57.61767578 C64.3643035 61.95154342 68.77336581 66.13426827 73.46362305 70.10009766 C77.22894062 73.47515666 78.86544506 76.42141071 79.92941284 81.33203125 C79.50502627 87.61531018 74.35546139 91.43337239 70.11691284 95.58203125 C68.73664706 96.95957663 67.35785105 98.33859559 65.98019409 99.71875 C63.76847265 101.93433766 61.55390303 104.14604551 59.32223511 106.34155273 C58.62283813 107.03192627 57.92344116 107.7222998 57.20285034 108.43359375 C56.58458374 109.04025879 55.96631714 109.64692383 55.32931519 110.27197266 C53.46299289 112.2206751 51.70202346 114.2065222 49.94235229 116.25 C45.76872785 121.04890499 41.31661415 125.54424797 36.82394409 130.04296875 C35.95549362 130.91474762 35.08704315 131.78652649 34.192276 132.6847229 C32.36906698 134.51296487 30.54452747 136.33988089 28.71871948 138.16552734 C25.92213511 140.96431472 23.13366503 143.77102417 20.34542847 146.578125 C18.56792312 148.35856169 16.7899449 150.13852644 15.01144409 151.91796875 C14.17909744 152.75750092 13.34675079 153.59703308 12.48918152 154.46200562 C11.71124741 155.2368631 10.93331329 156.01172058 10.13180542 156.81005859 C9.11090569 157.83309586 9.11090569 157.83309586 8.06938171 158.87680054 C5.17227863 161.40704787 3.00761021 162.48727621 -0.82058716 162.89453125 C-4.45562991 162.52360852 -6.20494306 162.10263746 -8.88308716 159.58203125 C-9.73996698 155.44044544 -9.85087335 153.15074772 -7.61546326 149.52729797 C-2.87904493 143.57422765 2.27019311 138.19830045 7.69894409 132.875 C8.59433395 131.98718338 9.48972382 131.09936676 10.4122467 130.18464661 C13.24646162 127.37468047 16.08692612 124.57112234 18.92941284 121.76953125 C22.69196704 118.0607459 26.44725605 114.34478568 30.19894409 110.625 C31.49575859 109.35308052 31.49575859 109.35308052 32.81877136 108.0554657 C33.61687729 107.26396622 34.41498322 106.47246674 35.23727417 105.65698242 C35.94008011 104.96465012 36.64288605 104.27231781 37.36698914 103.55900574 C40.86739966 99.60442058 41.69033182 96.13112991 41.55441284 90.94921875 C40.49730561 85.22951353 36.08787578 81.30176639 31.77706909 77.7109375 C25.88092866 72.61098626 20.43502439 67.04920913 14.93502808 61.53051758 C13.05861809 59.64874851 11.17692315 57.77238387 9.29464722 55.89648438 C3.8901904 50.49435477 -1.43030892 45.10075509 -6.37747192 39.27075195 C-7.96735375 37.48751657 -9.64627891 35.88368153 -11.41043091 34.2734375 C-11.97439575 33.75330078 -12.5383606 33.23316406 -13.11941528 32.69726562 C-14.26660958 31.65017095 -15.42860347 30.61909328 -16.60379028 29.60351562 C-19.86103854 26.54298852 -21.28626002 24.48156706 -21.44949341 19.9296875 C-21.18093358 16.26452203 -20.54850583 14.11055073 -17.88308716 11.45703125 C-17.2424231 10.81507812 -16.60175903 10.173125 -15.94168091 9.51171875 C-15.26234497 8.87492187 -14.58300903 8.238125 -13.88308716 7.58203125 C-13.23468872 6.90398438 -12.58629028 6.2259375 -11.91824341 5.52734375 C-8.29606901 1.95537771 -5.2945886 -0.64799827 0 0 Z " fill="#FF0300" transform="translate(215.88308715820313,32.41796875)"/>
<path d="M0 0 C2.4152832 1.71264648 2.4152832 1.71264648 4.73828125 3.93359375 C6.02919678 5.1553833 6.02919678 5.1553833 7.34619141 6.40185547 C8.22194824 7.25924316 9.09770508 8.11663086 10 9 C10.8461084 9.82000488 11.6922168 10.64000977 12.56396484 11.48486328 C15.12489619 13.99167312 17.65933484 16.52267536 20.1875 19.0625 C21.03763672 19.90876953 21.88777344 20.75503906 22.76367188 21.62695312 C27.07783085 25.94777489 31.21477761 30.34060241 35.19311523 34.97045898 C38.76531177 38.98284512 42.62024786 42.7227352 46.4375 46.5 C47.26443359 47.32242188 48.09136719 48.14484375 48.94335938 48.9921875 C50.95994959 50.99712113 52.97885236 52.99966253 55 55 C53.4819272 58.5747899 51.38425289 60.85811724 48.64208984 63.58496094 C47.74130707 64.48559265 46.84052429 65.38622437 45.91244507 66.31414795 C44.92871592 67.28766481 43.9448775 68.26107125 42.9609375 69.234375 C41.95444872 70.23713161 40.94840211 71.24033222 39.94277954 72.24395752 C37.30037853 74.87873813 34.65202572 77.50745611 32.00238037 80.13494873 C29.29743948 82.81939688 26.59818179 85.50954622 23.8984375 88.19921875 C18.60449826 93.47173618 13.30425717 98.73786057 8 104 C3.69929218 101.92055129 0.8623076 99.22968332 -2.5 95.875 C-3.06847656 95.33101563 -3.63695312 94.78703125 -4.22265625 94.2265625 C-7.9654551 90.50981562 -11.90914869 86.2996012 -13 81 C-12.01442142 75.2633638 -9.94873837 72.35327498 -5.80859375 68.35546875 C-5.05063255 67.61167717 -5.05063255 67.61167717 -4.27735901 66.8528595 C-2.67555634 65.28539675 -1.05750819 63.73611881 0.5625 62.1875 C2.18239032 60.61760778 3.79872713 59.04417659 5.41307068 57.46858215 C6.87154254 56.04849381 8.33899926 54.63765062 9.80688477 53.22729492 C12.72158347 50.26717066 13.24569866 48.49996391 13.5 44.4375 C13.42536421 37.96284534 10.41190446 34.47061802 6 30 C4.08623216 28.21407495 2.1332588 26.50690384 0.125 24.828125 C-12.62729564 13.85740007 -12.62729564 13.85740007 -13.375 8.125 C-12.91137424 4.26145204 -11.72434991 2.72434991 -9 0 C-5.40532949 -1.1982235 -3.64760022 -0.94849637 0 0 Z " fill="#FF0300" transform="translate(244,256)"/>
<path d="M0 0 C3.04956189 2.65859242 3.91698737 4.15327115 4.3125 8.1875 C3.01862845 13.98503985 -1.96709413 17.93991473 -6 22 C-7.21411111 23.25074957 -8.42761815 24.50208571 -9.640625 25.75390625 C-10.90479519 27.04569614 -12.17041658 28.3360675 -13.4375 29.625 C-14.05262451 30.25349854 -14.66774902 30.88199707 -15.30151367 31.52954102 C-16.17126831 32.40050415 -16.17126831 32.40050415 -17.05859375 33.2890625 C-17.57736084 33.81193848 -18.09612793 34.33481445 -18.63061523 34.87353516 C-20 36 -20 36 -22 36 C-22 36.66 -22 37.32 -22 38 C-23.34570312 39.32446289 -23.34570312 39.32446289 -25.28125 40.91015625 C-30.99910626 45.77209884 -36.22059763 51.11246679 -41.5 56.4375 C-42.52320139 57.4657298 -43.54663733 58.49372626 -44.5703125 59.52148438 C-47.04957999 62.01164338 -49.52567538 64.50492833 -52 67 C-55.5747899 65.4819272 -57.85811724 63.38425289 -60.58496094 60.64208984 C-61.48559265 59.74130707 -62.38622437 58.84052429 -63.31414795 57.91244507 C-64.28766481 56.92871592 -65.26107125 55.9448775 -66.234375 54.9609375 C-67.23713161 53.95444872 -68.24033222 52.94840211 -69.24395752 51.94277954 C-71.87873813 49.30037853 -74.50745611 46.65202572 -77.13494873 44.00238037 C-79.81939688 41.29743948 -82.50954622 38.59818179 -85.19921875 35.8984375 C-90.47173618 30.60449826 -95.73786057 25.30425717 -101 20 C-99.58401688 17.05224063 -98.19688428 14.9407404 -95.8828125 12.6171875 C-95.27566406 12.00746094 -94.66851562 11.39773437 -94.04296875 10.76953125 C-93.41003906 10.14433594 -92.77710937 9.51914063 -92.125 8.875 C-91.49980469 8.24207031 -90.87460938 7.60914063 -90.23046875 6.95703125 C-89.62074219 6.34988281 -89.01101562 5.74273437 -88.3828125 5.1171875 C-87.82996582 4.56659668 -87.27711914 4.01600586 -86.70751953 3.44873047 C-83.17141773 0.44855488 -79.81970255 -0.63447881 -75.12329102 -0.50292969 C-72.47882569 0.12344706 -71.2750583 1.15289669 -69.27734375 2.984375 C-68.58398926 3.61915771 -67.89063477 4.25394043 -67.17626953 4.90795898 C-62.70553049 9.20566628 -58.38867862 13.6523247 -54.09179688 18.12304688 C-53.37701172 18.85201172 -52.66222656 19.58097656 -51.92578125 20.33203125 C-51.29067627 20.98921143 -50.65557129 21.6463916 -50.0012207 22.32348633 C-46.71579284 25.07583879 -43.94862261 25.98210146 -39.6875 26.0625 C-30.57700224 23.43744132 -23.50043522 13.54486795 -17.09179688 6.87695312 C-16.01961914 5.78350586 -16.01961914 5.78350586 -14.92578125 4.66796875 C-13.97312378 3.68219849 -13.97312378 3.68219849 -13.0012207 2.67651367 C-8.8297712 -0.81809944 -5.19774512 -1.65885482 0 0 Z " fill="#FF0200" transform="translate(168,231)"/>
<path d="M0 0 C5.71302154 3.37913795 10.19362733 8.07957745 14.5625 13 C20.12094485 19.12875767 25.94029265 24.83486947 32.11352539 30.34375 C36.73761913 34.52801992 39.67402752 37.48499697 40.5078125 43.91796875 C40.31989545 48.51761656 38.04845843 51.17603784 34.875 54.3125 C34.400625 54.82361328 33.92625 55.33472656 33.4375 55.86132812 C29.5252915 59.92685291 25.62711173 62.61687954 20 63.4375 C13.19038204 62.44443071 8.53123812 56.7856392 3.9375 52.0625 C3.33873047 51.45470703 2.73996094 50.84691406 2.12304688 50.22070312 C0.41215983 48.48358123 -1.29430687 46.74221981 -3 45 C-8.54662909 39.17318726 -8.54662909 39.17318726 -15.9375 36.5625 C-24.08524027 37.7264629 -29.74257187 45.54996135 -35.1875 51.125 C-36.97040568 52.94231486 -38.75546496 54.75752013 -40.54296875 56.5703125 C-41.32696045 57.37227051 -42.11095215 58.17422852 -42.91870117 59.00048828 C-46.003539 61.96410374 -47.54380975 62.95585256 -51.875 63.375 C-54.99168206 63.28299463 -56.13997029 62.92418276 -59 61.375 C-61 59 -61 59 -61.5625 56.125 C-60.41366307 49.74257261 -55.66230886 45.37057249 -51.203125 40.97265625 C-50.65066101 40.42065048 -50.09819702 39.86864471 -49.5289917 39.2999115 C-48.36479706 38.13872181 -47.19818919 36.97994705 -46.02929688 35.82348633 C-44.26378683 34.07614495 -42.50632364 32.32102289 -40.75 30.56445312 C-35.53885023 25.37024786 -30.3090037 20.27370129 -24.70800781 15.49633789 C-21.35656183 12.56022977 -18.30923753 9.31270527 -15.2265625 6.09960938 C-10.35581313 1.12047946 -7.0995465 -0.9466062 0 0 Z " fill="#FF0200" transform="translate(317,132)"/>
<path d="M0 0 C3.01614093 2.01260874 5.49041186 4.39368256 8 7 C8.76376953 7.76763672 8.76376953 7.76763672 9.54296875 8.55078125 C12.7751942 12.06736671 14.41830274 15.26332232 15 20 C11.86178501 27.32876554 5.95249334 32.35066106 0.3125 37.8125 C-1.61162961 39.69043278 -3.53076206 41.57328568 -5.44921875 43.45703125 C-6.29830811 44.28178955 -7.14739746 45.10654785 -8.0222168 45.95629883 C-10.73966699 48.76431951 -11.18924185 50.43548457 -11.3125 54.25 C-11.34988281 54.99765625 -11.38726562 55.7453125 -11.42578125 56.515625 C-10.08945688 64.3128938 -2.23803414 69.91367828 3.125 75.125 C4.94473246 76.89368807 6.76004209 78.66694113 8.5703125 80.4453125 C9.37227051 81.22406738 10.17422852 82.00282227 11.00048828 82.80517578 C14.08566273 86.19171037 15.03713605 87.94162257 14.875 92.5625 C14 96 14 96 12.375 97.9375 C8.88629293 99.49823737 6.80354312 99.57053147 3 99 C-3.31349907 95.26794507 -8.45991415 89.81532262 -13.5625 84.625 C-14.27857422 83.90828125 -14.99464844 83.1915625 -15.73242188 82.453125 C-19.08504249 79.07304889 -22.34190588 75.65380548 -25.4453125 72.04296875 C-29.49446008 67.34857327 -33.89526625 63.0327332 -38.3125 58.6875 C-39.91507597 57.11042246 -41.51544087 55.53109404 -43.11328125 53.94921875 C-43.81235596 53.26174561 -44.51143066 52.57427246 -45.23168945 51.8659668 C-48.45628767 48.46328777 -49.62733224 45.89798829 -49.50860596 41.16322327 C-48.87284129 38.45916346 -47.80302743 37.23478355 -45.92480469 35.20092773 C-45.28788696 34.50651581 -44.65096924 33.81210388 -43.99475098 33.09664917 C-40.90974996 29.85405653 -37.8026914 26.64028559 -34.640625 23.47265625 C-33.96956726 22.79827011 -33.29850952 22.12388397 -32.6071167 21.42906189 C-31.20341095 20.02033721 -29.79838829 18.61292358 -28.39208984 17.20678711 C-26.23636808 15.0488541 -24.08880168 12.88301196 -21.94140625 10.71679688 C-20.57080138 9.34326199 -19.19972461 7.9701978 -17.828125 6.59765625 C-17.18748108 5.94982681 -16.54683716 5.30199738 -15.88677979 4.63453674 C-14.99004547 3.74241737 -14.99004547 3.74241737 -14.07519531 2.83227539 C-13.55225891 2.30791397 -13.02932251 1.78355255 -12.49053955 1.24330139 C-8.78938339 -1.84393813 -4.33338879 -1.38513677 0 0 Z " fill="#FF0300" transform="translate(182,71)"/>
</svg>
